<svg width="1440" height="210" viewBox="0 0 1440 210" fill="none" xmlns="http://www.w3.org/2000/svg">
<path fill-rule="evenodd" clip-rule="evenodd" d="M1440 60.0005L1416 60.0005C1392 60.0005 1338 85.0002 1290 70.0002C1215 61 1215 88.0003 1167 98.0002C1119 108 1056 70.0004 1008 85.0003C960 100 912 80.0003 864 80.0003C816 80.0003 768 100 720 105C672 110 624 100 576 85.0002C528 70.0003 480 50.0003 432 55.0003C384 60.0002 336 90.0002 288 110C240 130 192 140 144 120C95.9999 100 47.9999 50.0002 23.9999 25.0002L-6.10352e-05 0.000243324L-0.000125029 210L23.9999 210C47.9999 210 95.9999 210 144 210C192 210 240 210 288 210C336 210 384 210 432 210C480 210 528 210 576 210C624 210 672 210 720 210C768 210 816 210 864 210C912 210 960 210 1008 210C1056 210 1104 210 1152 210C1200 210 1248 210 1296 210C1344 210 1392 210 1416 210L1440 210L1440 60.0005Z" fill="#FFEAEE"/>
<path d="M630.082 188.477C625.598 188.477 622 184.82 622 180.395V173.965H627.722V180.395C627.722 181.693 628.784 182.755 630.082 182.755C631.379 182.755 632.382 181.693 632.382 180.395V174.791L622 160.456V153.141C622 148.658 625.598 145 630.082 145C634.506 145 638.104 148.658 638.104 153.141V159.512H632.382V153.141C632.382 151.784 631.379 150.781 630.082 150.781C628.784 150.781 627.722 151.784 627.722 153.141V158.509L638.104 172.844V180.395C638.104 184.82 634.506 188.477 630.082 188.477ZM656.138 187.887L649.944 164.644L649.059 166.119V188.064H643.573V146.003H649.059V155.147L652.717 146.003H659.501L653.897 158.155L661.86 187.887H656.138ZM672.933 145.885V187.887H667.329V145.885H672.933ZM692.088 178.449L692.324 145.767H697.987L697.633 188.359H688.843L684.065 155.383V188.359H678.402V145.767H687.545L692.088 178.449ZM709.001 182.578H717.142V188.123H703.456V145.767H709.001V182.578ZM730.574 188.182C726.15 188.182 722.61 184.584 722.61 180.218V153.731C722.61 149.366 726.15 145.826 730.574 145.826C734.939 145.826 738.479 149.366 738.479 153.731V180.218C738.479 184.584 734.939 188.182 730.574 188.182ZM730.574 151.43C729.276 151.43 728.273 152.492 728.273 153.731V180.218C728.273 181.516 729.276 182.519 730.574 182.519C731.813 182.519 732.875 181.516 732.875 180.218V153.731C732.875 152.492 731.813 151.43 730.574 151.43ZM754.448 188.123H748.608L742.709 146.003H748.372L751.44 167.712L754.271 146.003H759.934L754.448 188.123ZM778.735 165.883H770.594V182.519H778.794V188.123H764.99V146.003H778.794V151.607H770.594V160.279H778.735V165.883ZM800.426 188.241H794.409L791.165 179.333H789.867V188.241H784.263V146.003H793.052C796.946 146.003 800.072 149.13 800.072 153.023V172.313C800.072 174.85 798.775 177.033 796.769 178.272L800.426 188.241ZM789.867 151.607V173.729H793.052C793.819 173.729 794.468 173.08 794.468 172.313V153.023C794.468 152.256 793.819 151.607 793.052 151.607H789.867ZM813.977 188.477C809.493 188.477 805.895 184.82 805.895 180.395V173.965H811.617V180.395C811.617 181.693 812.679 182.755 813.977 182.755C815.275 182.755 816.277 181.693 816.277 180.395V174.791L805.895 160.456V153.141C805.895 148.658 809.493 145 813.977 145C818.401 145 822 148.658 822 153.141V159.512H816.277V153.141C816.277 151.784 815.275 150.781 813.977 150.781C812.679 150.781 811.617 151.784 811.617 153.141V158.509L822 172.844V180.395C822 184.82 818.401 188.477 813.977 188.477Z" fill="#77A395"/>
</svg>
