<svg width="1440" height="258" viewBox="0 0 1440 258" fill="none" xmlns="http://www.w3.org/2000/svg">
<path fill-rule="evenodd" clip-rule="evenodd" d="M2.99646e-06 222.857L25 204.5C50 189.5 94.4383 203.937 117 219.5C225 294 235.5 236.5 294 227.143C343.616 219.207 356 241 432 185.714C474.796 154.583 528 193.143 576 193.143C624 193.143 672 163.429 720 156C768 148.572 816 163.429 864 185.714C912 208 960 237.714 1008 230.286C1056 222.857 1104 178.286 1152 148.572C1200 118.857 1241.43 182.932 1296 168C1367 148.572 1416 193.143 1440 230.286L1440 148.572L1440 0.000125889L1416 0.000123791C1392 0.000121693 1344 0.000117496 1296 0.0001133C1248 0.000109104 1200 0.000104907 1152 0.000100711C1104 9.65147e-05 1056 9.23185e-05 1008 8.81222e-05C960 8.39259e-05 912 7.97296e-05 864 7.55333e-05C816 7.1337e-05 768 6.71407e-05 720 6.29444e-05C672 5.87481e-05 624 5.45518e-05 576 5.03555e-05C528 4.61592e-05 480 4.19629e-05 432 3.77666e-05C384 3.35703e-05 336 2.93741e-05 288 2.51778e-05C240 2.09815e-05 192 1.67852e-05 144 1.25889e-05C96 8.39259e-06 48 4.19629e-06 24 2.09815e-06L2.24793e-05 0L2.99646e-06 222.857Z" fill="#FFEAEE"/>
</svg>
