<svg width="1756" height="257" viewBox="0 0 1756 257" fill="none" xmlns="http://www.w3.org/2000/svg">
<path fill-rule="evenodd" clip-rule="evenodd" d="M2.99492e-06 222.742L30.4861 204.394C60.9722 189.402 115.162 203.831 142.675 219.387C274.375 293.848 287.179 236.378 358.517 227.026C419.021 219.094 434.122 240.876 526.8 185.619C578.987 154.503 643.867 193.043 702.4 193.043C760.933 193.043 819.467 163.344 878 155.92C936.533 148.495 995.067 163.344 1053.6 185.619C1112.13 207.893 1170.67 237.592 1229.2 230.167C1287.73 222.742 1346.27 178.194 1404.8 148.495C1463.33 118.796 1513.86 182.838 1580.4 167.913C1666.98 148.495 1726.73 193.043 1756 230.167L1756 148.495L1756 0.000127624L1726.73 0.000125065C1697.47 0.000122506 1638.93 0.000117389 1580.4 0.000112272C1521.87 0.000107155 1463.33 0.000102038 1404.8 9.69207e-05C1346.27 9.18036e-05 1287.73 8.66865e-05 1229.2 8.15693e-05C1170.67 7.64522e-05 1112.13 7.1335e-05 1053.6 6.62179e-05C995.067 6.11007e-05 936.533 5.59836e-05 878 5.08664e-05C819.467 4.57493e-05 760.933 4.06321e-05 702.4 3.5515e-05C643.867 3.03978e-05 585.333 2.52807e-05 526.8 2.01636e-05C468.267 1.50464e-05 409.733 9.92926e-06 351.2 4.81211e-06C292.667 -3.05036e-07 234.133 -5.42218e-06 175.6 -1.05393e-05C117.067 -1.56565e-05 58.5334 -2.07736e-05 29.2667 -2.33322e-05L2.24677e-05 -2.58908e-05L2.99492e-06 222.742Z" fill="#FFEAEE"/>
</svg>
