<svg width="1756" height="210" viewBox="0 0 1756 210" fill="none" xmlns="http://www.w3.org/2000/svg">
<path fill-rule="evenodd" clip-rule="evenodd" d="M1756 60.0003L1726.73 60.0003C1697.47 60.0003 1631.62 85 1573.08 70C1481.62 60.9998 1481.63 88 1423.09 98C1364.56 108 1287.73 70.0001 1229.2 85.0001C1170.67 100 1112.13 80.0001 1053.6 80.0001C995.067 80.0001 936.533 100 878 105C819.467 110 760.933 100 702.4 85C643.867 70 585.333 50 526.8 55C468.267 60 409.733 89.9999 351.2 110C292.667 130 234.133 140 175.6 120C117.067 99.9998 58.5335 49.9999 29.2669 24.9999L0.00019455 -2.55505e-05L0.000124571 210L29.2668 210C58.5335 210 117.067 210 175.6 210C234.133 210 292.667 210 351.2 210C409.733 210 468.267 210 526.8 210C585.333 210 643.867 210 702.4 210C760.933 210 819.467 210 878 210C936.533 210 995.067 210 1053.6 210C1112.13 210 1170.67 210 1229.2 210C1287.73 210 1346.27 210 1404.8 210C1463.33 210 1521.87 210 1580.4 210C1638.93 210 1697.47 210 1726.73 210L1756 210L1756 60.0003Z" fill="#FFEAEE"/>
</svg>
